<svg xmlns="http://www.w3.org/2000/svg" width="220" height="266" preserveAspectRatio="xMidYMid meet" xmlns:v="https://vecta.io/nano"><path d="M13.54 255.04c-1.14-.57-2.28-1.94-2.63-3.25-.19-.59-.24-38.22-.19-119.06l.07-118.2.71-1.16a6.41 6.41 0 0 1 1.87-1.87l1.16-.71 95.7-.07 95.73-.05 1.26.66c.81.4 1.54 1.04 1.99 1.68l.71 1.02.07 118.94.05 118.94-.52 1.04c-.31.57-.95 1.38-1.45 1.75l-.92.73-96.27.07-96.3.05-1.04-.52zm183.68-121.38l-.14-109.88c-.09-.26-16.59-.31-86.63-.31H23.94v109.88 109.88h86.65 86.67l-.05-109.57zM92.17 238.44c-.02-.83-.05-5.48 0-10.31l.05-8.84h2.25 2.25v.83c0 .9.24 1.04.73.43.62-.73 2.16-1.26 3.79-1.26 3.51 0 5.86 2.39 6.28 6.42.26 2.7-.52 5.29-2.09 6.78-2.2 2.11-5.24 2.28-7.7.4l-.78-.59v3.79 3.82H94.6h-2.35l-.09-1.47zm9.17-8.3c.88-.69 1.3-1.8 1.3-3.37 0-2.54-1.07-4.01-2.87-3.98-1.8.02-2.82 1.47-2.82 3.98 0 2.37 1.11 3.89 2.84 3.89.55 0 1.14-.19 1.54-.52zm32.2 4.08c-1.9-.4-2.84-1.14-3.51-2.68-.26-.66-.36-1.8-.36-4.79v-3.91h-1.3-1.3v-1.54-1.71c0-.12.59-.21 1.3-.26l1.3-.07v-1.87-1.9h2.25 2.25v1.9 1.87l2.32.07 2.3.07.07.95c.05.5.02 1.28-.07 1.71l-.14.76-2.18.07-2.18.07-.07 1.9c-.12 2.84.14 4.81.71 5.38.38.38.69.45 1.59.36.59-.05 1.28-.19 1.52-.28.36-.14.4 0 .45 1.16l.05 1.85c.02.36-.17.57-.62.69-1.16.31-3.39.43-4.39.21zm50.33 0c-1.92-.24-4.29-1.49-5.29-2.8-2.18-2.87-1.9-7.47.64-10 1.4-1.4 2.87-1.97 5.24-2.09 2.66-.14 4.15.33 5.69 1.78 1.4 1.3 2.11 2.94 2.28 5.19l.14 1.75h-5.26c-3.51 0-5.24.07-5.24.24 0 .71.83 1.73 1.73 2.16 1.68.76 4.77.43 7.09-.76l.9-.45v.52c0 .31.07 1.09.14 1.78l.17 1.23-.92.38c-2.2.92-5 1.33-7.3 1.07zm3.7-9.72c-.07-.78-.9-1.61-1.87-1.87-1.52-.43-3.15.47-3.51 1.94l-.17.66 2.8-.07 2.82-.07-.07-.59zm-153.22 9.39c-2.84-.83-4.93-2.61-6.21-5.31-.71-1.49-.76-1.75-.73-4.2 0-2.94.31-3.98 1.68-6 1.11-1.64 3.06-3.01 5.12-3.65 2.32-.69 5.76-.52 8.06.4l1.59.64V218c0 1.23-.07 2.23-.17 2.23-.12 0-.66-.33-1.23-.71-3.67-2.49-8.16-1.52-9.51 2.06-1.42 3.79.33 7.87 3.67 8.63 1.71.38 3.15.12 5.29-1l1.87-.92c.05 0 .07 1 .07 2.23v2.23l-1.59.64c-1.35.57-2.04.66-4.22.73-1.68.05-2.99-.02-3.7-.24zm17.09.12c-1.87-.59-3.72-2.09-4.5-3.6-1.07-2.04-1.07-5.24-.02-7.28.69-1.35 2.61-2.96 4.05-3.44.73-.24 2.02-.4 3.11-.4 3.3 0 5.69 1.33 7.04 3.89.57 1.07.64 1.47.64 3.58 0 2.04-.07 2.51-.57 3.44a7.43 7.43 0 0 1-3.22 3.27c-1.02.52-1.54.62-3.56.69-1.3.02-2.63-.02-2.96-.14zm4.24-3.91c1.78-1.59 1.59-6-.33-7.02-2.3-1.23-4.6.92-4.31 4.08.14 1.68.76 2.77 1.83 3.34.97.5 1.99.36 2.82-.4zm9.42 3.13c-.17-1.21-.17-12.64.02-13.39.12-.52.24-.55 2.35-.55h2.23v.97.97l.78-.66c1.09-.92 2.09-1.28 3.6-1.28 1.68 0 2.73.45 3.58 1.49l.66.85.97-.9c1.26-1.16 2.39-1.52 4.27-1.4 1.92.12 3.15.9 3.94 2.49.55 1.09.57 1.33.57 6.71v5.57l-2.3.07-2.28.07-.09-4.95c-.05-4.15-.14-5.03-.47-5.55-.78-1.19-2.35-1.02-3.37.36-.45.62-.5 1.04-.57 5.22-.05 2.51-.17 4.6-.28 4.67-.12.07-1.14.12-2.3.12h-2.09l-.12-4.98c-.07-2.73-.21-5.14-.31-5.38-.36-.71-1.42-.97-2.37-.59-1.35.57-1.45.95-1.59 6.21l-.12 4.74-2.28.07-2.3.07-.14-1.02zm47.56.5c-1.78-.9-2.82-2.94-2.51-4.93.45-2.82 2.99-4.29 7.49-4.29 1.14 0 2.11-.09 2.2-.21.07-.12-.14-.52-.45-.9-.55-.62-.71-.66-2.68-.73-1.59-.07-2.44.02-3.58.38-1.68.55-1.61.62-1.78-1.45-.12-1.11-.07-1.4.26-1.56.88-.45 3.86-.78 6.33-.69 3.11.09 4.5.64 5.57 2.13.97 1.33 1.19 2.73 1.19 7.89v4.62h-2.37-2.37v-1-1l-.76.73c-1.23 1.16-2.11 1.49-3.91 1.49-1.16 0-1.9-.14-2.63-.5zm6.28-3.6c.71-.69.85-.95.88-1.85l.02-1.04-1.66.09c-1.75.07-2.82.47-3.06 1.09-.24.66-.17 1.42.24 1.97.28.43.59.52 1.54.52 1 0 1.3-.12 2.04-.78zm22.35-3.25v-7.35l.55-.12c.28-.07 1.33-.12 2.3-.07l1.78.07.07 7.25.05 7.28-.52.14c-.31.07-1.38.14-2.37.14h-1.85v-7.35zm8.77-2.73v-10.08h2.37 2.37v3.58 3.58l.92-.73c.5-.4 1.19-.83 1.54-.97.83-.31 2.84-.31 3.96 0 1.19.33 2.73 1.73 3.48 3.18.59 1.11.64 1.42.64 4.05s-.05 2.94-.64 4.03c-1.19 2.25-3.06 3.41-5.48 3.44-1.54 0-2.49-.38-3.65-1.49-.83-.78-1.09-.62-.97.55.07.55-.02.59-1.11.76l-2.3.17-1.14.02v-10.08zm9.48 5.86c1.59-1.59 1.56-5.22-.07-6.59-.83-.71-2.11-.76-3.15-.12-2.02 1.23-1.94 5.9.09 6.99 1.09.59 2.35.47 3.13-.28zm9.66 4.07c-.09-.09-.17-4.65-.17-10.1v-9.91h2.37 2.37v9.96 9.96h-1.87c-1.04 0-2.04.05-2.2.12-.19.07-.4.05-.5-.02zm-27.91-17.99v-2.04l2.32.07 2.3.07.07 1.97.07 1.94h-2.39-2.37v-2.02zm-74.2-10.91c-5.76-.83-10.43-2.8-14.6-6.12-8.16-6.5-12.68-18.42-12.66-33.36.02-11.9 2.89-21.69 8.56-29.25 5.55-7.37 13.47-11.66 23.99-12.97 3.7-.45 11.36-.17 15.58.57 3.11.57 8.34 1.87 10.03 2.51l.64.26v7.23c0 4.79-.07 7.23-.24 7.23-.14 0-.9-.33-1.71-.73-3.77-1.92-10.17-3.46-15.13-3.7-5.95-.26-11.02 1.02-14.53 3.67-3.3 2.51-6.05 7.75-7.04 13.44-.45 2.61-.43 2.63 1.97 1.16 1.16-.69 2.7-1.49 3.44-1.78 8.94-3.37 19.8-2.37 27.5 2.54 2.02 1.3 5.19 4.53 6.71 6.83 6.02 9.13 5.38 23.45-1.45 32.03-4.62 5.81-11.47 9.39-20.22 10.55-2.47.31-8.3.26-10.83-.12zm7.94-12.68c5.93-.97 8.94-6.19 8.58-14.82-.21-5.07-1.28-8.13-3.58-10.43-1.87-1.87-3.3-2.37-7.02-2.37-2.35 0-3.22.09-4.17.45-4.53 1.68-6.71 6-6.73 13.25 0 3.79.45 6.12 1.66 8.63 1.42 2.89 3.44 4.5 6.5 5.17 1.78.4 2.94.43 4.77.12zm67.59 12.68c-7.33-1.19-12.47-3.84-17.28-8.89-6.66-6.95-9.93-17.52-9.93-32 0-14.63 3.6-25.75 10.67-32.91 2.42-2.47 4.2-3.72 7.49-5.29 4.6-2.18 8.84-3.06 14.82-3.06 6.21 0 10.41.88 15.08 3.18 6.54 3.22 11.05 8.39 14.22 16.26 2.73 6.78 3.84 14.08 3.6 23.71-.21 8.04-1.28 14.13-3.48 19.72-1.92 4.84-3.89 7.89-7.25 11.26-4.08 4.08-8.51 6.4-14.67 7.68-3.13.66-10.17.83-13.25.33zm10.17-14.46c5.48-2.63 7.73-10.17 7.73-25.96-.02-19.8-3.06-27.26-11.31-27.69-7.42-.38-10.93 3.94-12.54 15.36-.55 3.72-.76 16.19-.36 20.44.55 5.97 1.75 11.14 3.22 13.66 1.33 2.25 3.22 3.84 5.52 4.6 1.02.33 1.9.4 3.82.36 2.18-.07 2.68-.17 3.91-.76zm11.12-70.57l-6.31-6.83-5.31-5.71c-.38-.33-1.23-.43-4.84-.52-11.64-.33-20.86-3.98-27.97-11.07-5.52-5.5-8.84-12.33-10.36-21.29-.33-1.99-.43-3.86-.43-8.7 0-5.41.07-6.54.57-9.25 2.7-15.08 11.09-25.25 24.61-29.75 9.48-3.15 20.6-3.32 30.63-.45 6.54 1.87 11.4 4.74 15.86 9.32 7.11 7.33 10.72 17.42 10.72 30.01 0 17.38-7.42 30.53-20.93 37.13-.73.38-1.33.76-1.3.85.07.19 3.34 3.79 10.83 11.9 2.75 2.99 5 5.52 5 5.64 0 .09-4.36.19-9.67.19h-9.67l-1.42-1.47zm-8.75-28.28c.78-.21 2.32-.83 3.41-1.35 1.66-.78 2.39-1.33 4.17-3.13 2.49-2.49 3.82-4.67 5-8.16 1.52-4.48 2.13-9.15 1.92-14.75-.5-13.47-5.59-22.02-14.56-24.47-2.75-.76-7.99-.76-10.62 0-7.75 2.23-12.38 8.58-14.01 19.25-.52 3.44-.52 10.91 0 14.11 1.83 11.05 6.4 16.76 14.96 18.75 1.92.43 7.75.28 9.72-.26zM33.19 66.38V26.55h18.56l21.15.24c10.03.92 17.23 4.34 21.57 10.19 3.51 4.79 5.22 11.57 4.6 18.28-1.21 13.06-9.01 20.53-23.85 22.88-1.94.31-4.81.45-11.92.55l-9.36.14-.07 13.7-.05 13.68H43.51 33.2V66.38zm36.46-3.11c5.33-1.35 8.11-5.03 8.11-10.72 0-4.15-1.8-7.66-4.84-9.39-2.44-1.42-4.41-1.68-12.16-1.68h-6.95v11.09c0 6.12.07 11.19.19 11.31.09.09 3.25.09 7.04 0 5.52-.14 7.18-.26 8.61-.62z"/></svg>