<svg xmlns="http://www.w3.org/2000/svg" width="220" height="266" preserveAspectRatio="xMidYMid meet" xmlns:v="https://vecta.io/nano"><path d="M11.47 257.95c-1.16-.55-2.54-2.09-2.89-3.32-.4-1.3-.4-242.66-.02-243.99.4-1.3 1.54-2.56 2.92-3.2l1.21-.57h97.67 97.67l1.19.57c1.38.64 2.06 1.33 2.66 2.63.4.9.43 6.09.5 121.97l-.19 122.23c-.31 1.49-1.56 3.06-2.94 3.67-.95.43-4.27.45-98.88.45s-97.93-.02-98.88-.45zm124.08-13.54h62.16V132.75 21.09h-87.24-87.24v111.66 111.66l24.61.07H72.9c.26-.05 28.45-.07 62.66-.07zm-78.53-5.14c-1.83-.43-2.39-.66-3.25-1.45-1.75-1.59-1.94-2.32-2.04-7.92l-.09-4.93h-1.52-1.52v-2.96-2.96h1.54 1.54v-2.16-2.18l1.45.17 3.67.14H59l.07 2.09.07 2.06 2.56-.07 2.54-.09V222v2.99h-2.51-2.49l.07 3.7c.07 3.6.09 3.7.66 4.17.4.31.76.43 1.19.31.33-.07 1.14-.21 1.8-.28l1.21-.12.17 2.89.07 2.99c-.52.52-5.9 1-7.4.64zm12.37-.16c-1.94-.52-3.67-2.28-4.22-4.27-.14-.55-.21-1.83-.17-2.89.07-1.56.21-2.13.76-3.03 1.23-2.13 3.65-3.18 7.85-3.44l2.61-.14-.76-.43c-1.09-.59-3.08-.52-5.19.19-.97.33-2.11.59-2.54.59h-.76l-.43-2.2-.4-2.56c0-.43 1.85-1.21 3.86-1.64 3.3-.71 8.39-.47 10.6.5a7.03 7.03 0 0 1 3.37 3.39c.52 1.16.55 1.47.62 8.51l.07 7.28h-3.67-3.7v-.59-.59l-.88.57c-1.61 1.07-4.65 1.4-7.02.76zm6.35-6.33c.78-.69 1.38-1.97 1.11-2.42-.14-.26-2.06.02-3.06.43-.43.19-.9.59-1.07.95-.24.52-.19.69.28 1.19.76.81 1.68.76 2.73-.14zm40.71 6.28c-2.42-.64-4.27-2.44-5.33-5.17-.57-1.52-.83-6.07-.43-7.94.57-2.73 2.18-4.98 4.41-6.14 1.09-.59 1.4-.64 4.03-.64 2.47 0 2.96.07 3.82.52l.95.5-.02-3.46c-.02-2.3.05-3.56.21-3.65.14-.09 1.83-.19 3.77-.19h3.48v13.04 13.04h-3.67H124v-.59-.57l-.83.57c-1.56 1.04-4.34 1.33-6.71.69zm5.43-6.33c2.37-1.59 2.75-4.93.78-6.83-1.47-1.42-3.13-.88-4.15 1.33-.9 1.94-.28 4.62 1.26 5.57 1 .59 1.14.59 2.11-.07zm15.81 6.4c-2.06-.59-3.7-2.11-4.22-3.98-.31-1.04-.31-3.89 0-4.95.78-2.82 3.65-4.41 8.53-4.72l2.49-.14-.76-.43c-1.09-.59-3.15-.52-5.17.19-.9.33-2.04.59-2.49.59h-.85l-.28-1.66a18.34 18.34 0 0 1-.28-2.68v-1.02l1.61-.52c2.96-.95 6.57-1.23 9.86-.76 3.08.45 5.07 1.78 6.12 4.13.52 1.16.55 1.49.62 8.51l.09 7.28h-3.7-3.7v-.57-.57l-1.33.71c-1.14.62-1.64.73-3.39.81-1.23.07-2.47-.02-3.15-.21zm5.83-6.07c.85-.57 1.56-1.64 1.56-2.35 0-.52-.07-.55-1.11-.38-1.9.26-3.15 1.09-3.15 2.02 0 .4.95 1.16 1.49 1.16.28 0 .83-.21 1.21-.45zm34.04 6.05c-2.66-.71-4.67-2.82-5.55-5.81-.52-1.78-.52-6.59 0-8.34.81-2.7 2.7-4.72 5.26-5.55 1.73-.57 5.24-.43 6.64.26l1 .5v-3.65-3.65l3.75.07 3.72.07.07 12.99.05 12.97h-3.67-3.67v-.59-.59l-.88.57c-1.61 1.04-4.46 1.38-6.71.76zm5.36-6.33c.45-.26 1.09-.97 1.42-1.54.55-.9.62-1.28.52-2.54-.09-1.73-.66-2.68-1.94-3.37-.78-.43-.88-.43-1.66-.07-1.85.9-2.7 3.96-1.66 6 .45.88 1.75 2.02 2.3 2.02.12 0 .59-.21 1.02-.5zM32.5 238.94c-.59-.12-1.9-.47-2.92-.83l-1.85-.62v-1.47l.14-3.3.17-1.83h.81c.43 0 1.4.31 2.16.69 2.84 1.42 5.86 1.85 7.54 1.07 2.18-1.04 1.28-1.99-2.92-3.11-3.65-.97-5.17-1.64-6.26-2.73-1.26-1.23-1.73-2.42-1.83-4.48-.24-4.41 1.92-7.09 6.5-8.18 2.35-.55 7.33-.33 9.93.43l1.9.55.07 1.54c.05.85.02 2.32-.07 3.27l-.17 1.71h-.76c-.43 0-1.21-.21-1.75-.47-2.58-1.26-5.62-1.54-6.92-.64-.45.28-.83.64-.88.78-.17.5 1.14 1.07 4.29 1.87 5.86 1.47 7.49 2.92 7.87 6.92.43 4.5-1.9 7.7-6.31 8.7-1.78.4-6.92.47-8.75.12zm55.59-3.46c-.19-4.24-.19-12.68.02-14.67l.14-1.47.92-.14c.5-.09 2.09-.07 3.51 0 2.49.17 2.61.19 2.61.71s0 .52 1.38-.21c1.28-.71 1.49-.76 3.84-.76 2.89 0 3.94.31 5.26 1.49 2.04 1.85 2.32 3.27 2.32 11.95v6.59h-3.77-3.79l-.07-6.16-.07-6.16-.76-.73c-.83-.85-1.42-.83-2.56.05-1.38 1.09-1.54 1.92-1.54 7.75v5.26h-3.65-3.63l-.17-3.48zm68.38-6.33v-9.84l.5-.14c.28-.09 1.94-.09 3.67 0 3.15.17 3.18.17 3.18.73v.57l1.26-.69c1.38-.81 3.63-1.14 5.5-.88l1.11.19-.17 2.75-.26 3.41-.12.64-2.2-.05c-2.06-.05-2.23 0-3.06.62-1.61 1.23-1.71 1.56-1.78 7.35l-.07 5.14h-3.79-3.77v-9.81zm-88.38-21.48c-6.23-.66-11.45-2.47-15.86-5.5-2.3-1.59-5.9-5.36-7.66-8.01-4.93-7.54-7.14-17.33-6.8-30.23.24-8.53 1.56-14.75 4.46-20.98 3.51-7.47 9.51-13.77 15.95-16.71a44.58 44.58 0 0 1 13.47-3.65c2.96-.33 10.69-.33 13.66 0 3.27.36 7.56 1.26 10.67 2.23l2.66.85v8.3 8.32l-.88-.12c-.5-.05-2.13-.64-3.63-1.3-5.36-2.37-9.74-3.27-15.15-3.06-4.05.14-6.54.76-9.55 2.35-3.32 1.78-5.38 4.05-7.3 8.04-.85 1.78-2.28 6.54-2.04 6.78.05.05.64-.24 1.3-.64 1.45-.9 4.95-2.18 7.4-2.73 2.42-.52 9.58-.73 12.75-.38 12.3 1.45 20.77 9.89 22.57 22.52.4 2.82.14 9.51-.45 12.11-1.02 4.29-2.49 7.49-5.05 10.88-4.2 5.59-10.72 9.32-18.47 10.57-2.75.45-9.36.64-12.04.36zm6.47-15.05c4.2-1.11 6.71-4.2 7.61-9.36.45-2.61.33-6.59-.26-8.89-1.23-4.81-4.31-7.56-8.8-7.87-6.71-.47-11.05 4.48-11.05 12.61-.02 6.05 2.13 10.86 5.62 12.61 2.44 1.26 4.48 1.52 6.88.9zm67.8 14.67c-8.13-1.26-13.77-4.34-18.78-10.24-1.68-1.97-2.63-3.48-4.2-6.61-2.11-4.27-3.46-8.94-4.34-15.24-.59-4.22-.59-16.41 0-20.63 1.16-8.34 3.22-14.3 6.78-19.58 3.72-5.59 8.63-9.29 14.84-11.21 4.1-1.26 6.26-1.54 12.33-1.54 5.86 0 7.97.24 12.02 1.4 10.72 3.06 17.9 12.14 20.81 26.31 1.92 9.36 1.78 22.47-.36 31.29-1.11 4.69-3.06 9.44-5.14 12.71-4.72 7.35-11.45 11.76-20.29 13.28-3.27.55-10.34.59-13.68.07zm9.08-15.69c4.81-1.52 7.11-5.74 8.51-15.69.59-4.36.59-17.54 0-22.05-.88-6.42-1.73-9.32-3.51-11.83-2.66-3.82-7.14-5.05-11.21-3.15-4.17 1.94-6.31 6.4-7.42 15.34-.59 4.74-.59 16.69.02 21.34 1.3 10.05 4.13 15.01 9.32 16.22 1.47.36 2.77.28 4.29-.17zm13.44-69.94c-.14-.09-2.42-2.68-5.07-5.74l-6.21-7.14-1.38-1.59-5.17-.09c-6-.14-8.44-.55-13.56-2.23-5.86-1.92-10.24-4.62-14.63-8.98-4.15-4.13-7.09-8.87-8.98-14.44-2.51-7.44-3.18-18.56-1.64-27.64 1.47-8.61 4.95-15.72 10.43-21.19 5.29-5.29 12.52-8.89 21.31-10.62 2.58-.5 3.48-.55 9.84-.55 5.64 0 7.49.09 9.6.43 10.29 1.68 17.78 5.5 23.71 12.04 5.03 5.55 8.3 13.39 9.48 22.76.57 4.46.4 13.35-.36 17.52-2.18 12.23-8.56 21.93-18.06 27.45-1.35.78-2.28 1.47-2.2 1.64.05.17 1.94 2.39 4.22 4.98 10.64 12.09 10.36 11.73 10.36 12.71v.88h-10.72c-5.9 0-10.86-.09-10.98-.19zm-9.96-32.15c.78-.21 2.44-.88 3.67-1.49 1.9-.92 2.58-1.42 4.39-3.25 1.66-1.66 2.39-2.61 3.18-4.13 2.7-5.24 3.96-12.28 3.39-18.99-1.02-11.76-5.36-19.27-12.75-22.07-4.84-1.8-10.45-1.52-14.89.76-2.25 1.16-5.45 4.2-6.73 6.4-2.8 4.74-4.15 10.45-4.13 17.5.02 10 2.87 17.95 7.89 22 1.8 1.47 4.43 2.77 6.8 3.37 2.2.57 6.9.52 9.17-.09zM31.2 105.99c-.12-.19-.21-48.69-.14-78.21v-4.1l21.88.09c21 .09 21.95.12 24.47.59 4.81.92 8.37 2.16 11.14 3.89 7.4 4.65 11.02 11.97 11.02 22.36 0 7.37-1.45 12.16-5.12 17.02-2.32 3.11-4.79 5.1-8.51 6.92-6.12 3.01-12.02 3.91-26.13 3.91h-6v13.75 13.75H44l-11.21.14c-.95.09-1.49.07-1.59-.12zm37.43-45.38c4.41-1.47 6.66-4.01 7.47-8.46.21-1.21.19-1.83-.12-3.39-.73-3.6-2.37-5.9-5.19-7.28-2.35-1.16-4.39-1.42-11.07-1.42h-5.9v10.69 10.69l6.47-.09c6.23-.09 6.52-.12 8.34-.73z"/></svg>