<svg xmlns="http://www.w3.org/2000/svg" width="220" height="266" preserveAspectRatio="xMidYMid meet" xmlns:v="https://vecta.io/nano"><path d="M13.87 255.11c-1.16-.55-2.11-1.52-2.58-2.68-.33-.81-.38-12.78-.38-119.2l.38-119.08a7.4 7.4 0 0 1 2.82-2.84l.95-.52h95.54 95.54l1 .52c1.19.64 2.37 2.02 2.7 3.15.17.57.21 39.78.17 119.36l-.07 118.53-.57.92c-.31.5-1.07 1.21-1.66 1.59l-1.07.69h-95.89c-92.86 0-95.94-.02-96.87-.45zm183.37-121.88v-110h-86.65l-86.65.02v109.98 110h86.65 86.65v-110zM35.92 236.12c-1.59-.17-4.43-.85-5.86-1.4-.66-.24-.66-.28-.66-2.32 0-2.66.12-2.84 1.33-2.32 4.77 2.06 9.03 2.32 10.67.71.97-.97.64-2.25-.83-3.08-.17-.09-1.73-.52-3.46-.95-4.46-1.09-6.28-2.09-7.23-3.91-1.16-2.3-.71-5 1.16-6.88 2.54-2.54 7.42-3.15 13.49-1.73l1.71.4v2.42 2.44l-1.42-.57c-2.02-.78-3.53-1.07-5.83-1.07-3.03 0-4.43.85-4.03 2.47.21.85 1.35 1.35 5.07 2.25 1.73.43 3.6.95 4.15 1.19 3.03 1.3 4.34 4.22 3.37 7.52-1.07 3.58-5.67 5.5-11.62 4.84zm21.62 0c-1.87-.47-3.15-1.52-3.86-3.2-.33-.76-.43-1.87-.52-5.74l-.09-4.81h-1.28-1.28v-2.02-2.02h1.3 1.3v-2.02-2.02h2.96 2.96v2.02 2.02h2.73 2.73v2.02 2.02h-2.73-2.73v4.03c0 5.55.21 5.88 3.44 5.64l1.47-.12.17 1.9c.09 1.07.07 1.99-.05 2.11-.31.31-5.45.45-6.52.19zm13.58-.09c-1.73-.36-2.89-1.11-3.77-2.42-1.68-2.56-1.07-5.97 1.4-7.8 1.33-.97 2.92-1.35 6.47-1.47l3.25-.21c0-.57-.73-1.33-1.59-1.66-1.33-.52-4.74-.33-6.95.36-.83.26-1.56.45-1.61.4s-.09-.92-.12-1.94l-.05-1.87 1.66-.45c2.37-.64 8.01-.69 9.77-.07 1.87.66 3.01 1.61 3.77 3.18l.69 1.38.07 6.35.09 6.33h-2.87-2.87v-1.35-1.35l-.88.85c-1.66 1.61-4.05 2.28-6.47 1.75zm5.36-4.08c.97-.47 1.68-1.54 1.9-2.92.19-1.26-.02-1.45-1.68-1.42-2.09 0-3.25.33-3.96 1.14-.9 1-.88 1.97.02 2.89.57.57.9.69 1.8.69.62 0 1.47-.17 1.92-.38zm41.39 4.12c-1.73-.26-2.87-.9-4.15-2.32-3.44-3.84-2.89-11.12 1.07-13.99 2.75-2.02 6.69-1.8 8.82.45.4.4.76.73.83.73s.14-1.9.14-4.2v-4.22l2.8-.07 2.77-.07v11.88 11.88l-2.77-.07-2.8-.07.07-1.11c.05-.64 0-1.14-.12-1.14s-.52.31-.9.71c-1.28 1.35-3.46 1.94-5.76 1.61zm5.31-5.03c1.14-1.21 1.4-2.18 1.23-4.77-.14-2.39-1.45-3.79-3.51-3.79-2.25 0-3.56 1.78-3.56 4.86.02 3.18 1.21 4.74 3.65 4.74 1.07 0 1.26-.09 2.18-1.04zm-33.57-3.81v-8.91l2.8.07 2.77.07.07 1.26.07 1.26.88-.76c1.42-1.26 2.77-1.75 4.79-1.75 2.28 0 4.1.81 5.12 2.28 1.04 1.52 1.28 3.22 1.28 9.65v5.74h-2.84-2.84v-5.03c-.02-5.74-.17-6.88-1.02-7.73-1.26-1.23-3.77-.59-4.72 1.21-.52.92-.55 1.33-.62 6.28l-.07 5.26h-2.84-2.82v-8.89zm47.56 8.54c-1.26-.45-2.51-1.49-3.08-2.63-.64-1.21-.69-4.1-.07-5.22 1.35-2.54 4.05-3.65 8.84-3.65 2.42 0 2.49-.02 2.42-.5-.05-.28-.38-.73-.73-1.02-.62-.45-.97-.5-3.44-.47-2.18.02-3.06.14-4.17.55l-1.59.5c-.09 0-.21-.85-.26-1.9l-.07-1.9 1.19-.36c3.25-.92 7.85-1.04 10.45-.26 1.61.5 3.2 1.92 3.91 3.51.52 1.19.55 1.59.64 7.49l.09 6.21h-3.01-3.03l.17-1.33.14-1.33-1 .85c-1.61 1.4-2.7 1.8-4.72 1.8-.97-.02-2.16-.17-2.68-.36zm6.26-3.86c1.23-.62 1.94-1.8 1.85-3.13l-.07-1.07h-1.54c-3.08.02-4.5.76-4.5 2.35 0 1.92 2.2 2.89 4.27 1.85zm13.2 4.04c-.21-.19-.21-13.89 0-16l.14-1.61h2.68 2.7v1.56 1.56l1.33-1.21c1.47-1.35 2.96-1.92 5-1.92h1.26v2.63c0 2.42-.02 2.63-.4 2.47-.85-.33-2.82-.4-3.77-.14-1.28.33-2.13 1.02-2.7 2.18-.43.81-.47 1.4-.47 5.78v4.86h-2.8c-1.54 0-2.89-.07-2.96-.17zm19.82-.23c-1.42-.5-3.18-2.16-3.94-3.72-1.75-3.56-1.09-8.8 1.42-11.36 1.49-1.54 2.96-2.16 5.17-2.16 1.66-.02 2.06.07 3.15.69.71.38 1.54 1 1.85 1.38l.57.69v-4.43-4.41l2.8.07 2.77.07.07 11.81.05 11.78h-2.84-2.84v-1.33-1.33l-.97.88c-1.47 1.3-2.66 1.78-4.6 1.75-.9 0-2.11-.17-2.66-.38zm6.23-4.08c1.16-.71 1.87-2.39 1.85-4.53 0-1.99-.36-2.89-1.49-3.86-.92-.76-1.87-.97-3.03-.66-1.73.47-2.68 2.11-2.68 4.65 0 2.23.9 4.08 2.25 4.62.85.36 2.35.26 3.11-.21zM66.14 205.06c-8.37-1.47-14.94-5.67-19.42-12.33-3.32-4.95-5.36-10.86-6.47-18.73-.47-3.44-.4-13.39.12-16.83.88-5.67 2.11-9.98 4.08-14.13 5.12-10.86 13.84-17.26 26.2-19.23 3.72-.59 11.43-.52 15.77.14 3.01.45 8.3 1.64 11 2.47l1.04.33-.05 7.21-.12 7.25c-.05.05-1.07-.4-2.3-.97-5.83-2.73-13.54-3.98-19.65-3.25-3.86.47-7.63 2.02-10.1 4.13-2.99 2.58-5.41 7.56-6.38 13.2-.21 1.21-.33 2.23-.26 2.3.05.05.62-.26 1.26-.71 2.63-1.87 6.45-3.37 10.41-4.05 2.44-.43 7.3-.5 9.93-.12 8.98 1.23 16.05 6.05 19.68 13.37 2.89 5.86 3.63 12.8 2.02 19.49-2.66 11.14-11.43 18.7-23.83 20.58-3.34.5-9.72.45-12.92-.12zm10.88-13.02c2.77-1.11 4.48-2.96 5.59-6.02 1.64-4.46 1.3-12.33-.66-16.22-2.28-4.46-7.49-6.33-12.85-4.58-4.08 1.35-6.52 5.22-6.97 11.05-.69 8.77 2.04 14.53 7.56 16.1 1.87.52 5.64.36 7.33-.33zm65.1 13.12c-12.75-2.13-21.36-10.6-24.89-24.39-2.96-11.59-2.47-26.67 1.21-36.86 2.2-6.14 5.64-11.24 9.91-14.63 2.28-1.83 6.71-4.05 9.67-4.91 3.65-1.04 6.92-1.4 11.57-1.26 7.54.24 13.06 1.97 17.9 5.55 7.21 5.36 11.69 14.39 13.3 26.74.5 3.77.57 13.54.12 17.07-.45 3.67-1.59 9.06-2.39 11.38-1.07 3.06-3.56 8.01-5.03 9.96-4.65 6.16-11.05 9.98-19.13 11.36-2.75.47-9.48.47-12.23 0zm8.49-13.73c4.27-.9 6.9-3.96 8.34-9.7 2.04-8.11 2.25-23.33.47-32.86-1.14-5.97-3.08-9.29-6.47-10.95-1.35-.66-1.85-.78-3.84-.85-3.58-.14-5.9.66-8.04 2.8-2.42 2.42-3.91 7.02-4.81 14.82-.45 3.96-.38 16.5.14 20.36.81 6.28 1.8 9.63 3.6 12.28 1.56 2.3 3.34 3.51 6.12 4.1 1.9.43 2.54.43 4.48 0zm8.53-76.5l-6.47-7.09-.59-.64-4.39-.12c-5.26-.14-8.94-.73-13.25-2.11-5.83-1.85-10.36-4.46-14.3-8.2-5.83-5.55-9.08-11.76-10.76-20.6-.52-2.73-.64-4.17-.73-8.53-.07-3.18-.02-6.16.14-7.59 1.87-16.22 10.12-27.57 23.73-32.62 5.26-1.94 10.29-2.77 16.9-2.77 10.6 0 18.92 2.23 25.98 6.92 2.42 1.61 6.92 6.19 8.65 8.8 4.36 6.57 6.54 14.01 6.92 23.64.36 8.3-1.23 16.26-4.55 22.95-3.39 6.85-8.44 11.92-15.5 15.67l-2.11 1.11c-.14.12 7.06 8.18 13.3 14.86l2.61 2.77h-9.84-9.86l-5.88-6.45zm-4.67-22.95c8.01-1.83 12.92-8.04 14.7-18.61.52-2.94.59-10.67.14-13.7-1.33-9.06-5.17-15.55-10.86-18.33-2.87-1.38-4.95-1.8-8.75-1.83-2.66 0-3.7.09-5.17.5-7.14 1.94-11.9 7.82-13.77 17-1.71 8.27-.64 19.53 2.37 25.53 3.94 7.85 12.21 11.5 21.34 9.44zM33.19 66.38V26.55h17.85l21.03.24c10.67.81 17.92 4.15 22.45 10.27 2.06 2.8 3.41 6.21 4.24 10.5.59 3.25.38 9.36-.47 12.54-.64 2.49-1.99 5.57-3.22 7.35-3.27 4.77-8.8 8.25-15.6 9.86-4.2 1-6.71 1.21-16.33 1.33l-9.32.12v13.73 13.73H43.51 33.2V66.39zm36.27-2.96c3.37-.92 5.59-2.49 6.83-4.81 3.03-5.69 1.14-13.32-3.89-15.67-2.44-1.16-3.39-1.28-11-1.42l-7.4-.07c-.12.05-.19 5.14-.19 11.36v11.26l7.06-.12c5.71-.09 7.33-.19 8.58-.52z"/></svg>